<svg xmlns="http://www.w3.org/2000/svg" viewBox="0 0 800 600" role="img" aria-labelledby="title desc">
  <title id="title">MEDILIFE patient management system preview</title>
  <desc id="desc">A medical dashboard interface for patient records and appointments.</desc>
  <defs>
    <linearGradient id="bg" x1="0" x2="1" y1="0" y2="1">
      <stop offset="0" stop-color="#dbeafe"/>
      <stop offset="0.52" stop-color="#ecfeff"/>
      <stop offset="1" stop-color="#14b8a6"/>
    </linearGradient>
  </defs>
  <rect width="800" height="600" fill="url(#bg)"/>
  <rect x="86" y="92" width="628" height="416" rx="34" fill="#ffffff" opacity="0.95"/>
  <rect x="132" y="136" width="158" height="320" rx="22" fill="#0f172a"/>
  <rect x="164" y="174" width="94" height="94" rx="47" fill="#14b8a6"/>
  <rect x="202" y="192" width="18" height="58" rx="9" fill="#ffffff"/>
  <rect x="182" y="212" width="58" height="18" rx="9" fill="#ffffff"/>
  <rect x="332" y="142" width="206" height="28" rx="14" fill="#0f172a"/>
  <rect x="332" y="198" width="292" height="24" rx="12" fill="#cbd5e1"/>
  <rect x="332" y="248" width="250" height="24" rx="12" fill="#cbd5e1"/>
  <rect x="332" y="318" width="120" height="92" rx="18" fill="#dbeafe"/>
  <rect x="478" y="318" width="120" height="92" rx="18" fill="#ccfbf1"/>
  <path d="M352 374c28-54 52 24 82-30" fill="none" stroke="#14b8a6" stroke-width="12" stroke-linecap="round"/>
  <path d="M498 360h78" stroke="#0f172a" stroke-width="12" stroke-linecap="round" opacity="0.6"/>
  <path d="M498 386h46" stroke="#0f172a" stroke-width="12" stroke-linecap="round" opacity="0.35"/>
</svg>
