<svg xmlns="http://www.w3.org/2000/svg" viewBox="0 0 800 600" role="img" aria-labelledby="title desc">
  <title id="title">SAVELKR Android application preview</title>
  <desc id="desc">A mobile application mockup with location and utility service cards.</desc>
  <defs>
    <linearGradient id="bg" x1="0" x2="1" y1="0" y2="1">
      <stop offset="0" stop-color="#dcfce7"/>
      <stop offset="0.48" stop-color="#f8fafc"/>
      <stop offset="1" stop-color="#2563eb"/>
    </linearGradient>
  </defs>
  <rect width="800" height="600" fill="url(#bg)"/>
  <rect x="274" y="58" width="252" height="484" rx="42" fill="#0f172a"/>
  <rect x="298" y="96" width="204" height="398" rx="28" fill="#ffffff"/>
  <rect x="350" y="82" width="100" height="12" rx="6" fill="#334155"/>
  <circle cx="400" cy="190" r="58" fill="#2563eb"/>
  <path d="M400 148c-26 0-46 20-46 46 0 36 46 78 46 78s46-42 46-78c0-26-20-46-46-46zm0 62a18 18 0 1 1 0-36 18 18 0 0 1 0 36z" fill="#ffffff"/>
  <rect x="326" y="288" width="148" height="22" rx="11" fill="#0f172a"/>
  <rect x="326" y="332" width="148" height="46" rx="16" fill="#dcfce7"/>
  <rect x="346" y="348" width="78" height="12" rx="6" fill="#166534" opacity="0.75"/>
  <rect x="326" y="398" width="148" height="46" rx="16" fill="#dbeafe"/>
  <rect x="346" y="414" width="98" height="12" rx="6" fill="#1d4ed8" opacity="0.75"/>
</svg>
