<svg xmlns="http://www.w3.org/2000/svg" viewBox="0 0 800 600" role="img" aria-labelledby="title desc">
  <title id="title">Ambiance photography studio management preview</title>
  <desc id="desc">A studio booking dashboard with photography-themed visuals.</desc>
  <defs>
    <linearGradient id="bg" x1="0" x2="1" y1="0" y2="1">
      <stop offset="0" stop-color="#f8cad7"/>
      <stop offset="0.52" stop-color="#f7efe5"/>
      <stop offset="1" stop-color="#334155"/>
    </linearGradient>
    <linearGradient id="panel" x1="0" x2="1">
      <stop offset="0" stop-color="#ffffff" stop-opacity="0.96"/>
      <stop offset="1" stop-color="#f8fafc" stop-opacity="0.9"/>
    </linearGradient>
  </defs>
  <rect width="800" height="600" fill="url(#bg)"/>
  <circle cx="626" cy="136" r="94" fill="#ffffff" opacity="0.25"/>
  <circle cx="652" cy="138" r="50" fill="#0f172a" opacity="0.22"/>
  <rect x="84" y="92" width="632" height="416" rx="34" fill="url(#panel)"/>
  <rect x="124" y="132" width="210" height="298" rx="22" fill="#0f172a"/>
  <circle cx="230" cy="252" r="74" fill="#f8cad7"/>
  <circle cx="230" cy="252" r="42" fill="#ffffff"/>
  <circle cx="230" cy="252" r="23" fill="#334155"/>
  <rect x="384" y="136" width="238" height="28" rx="14" fill="#0f172a"/>
  <rect x="384" y="190" width="270" height="24" rx="12" fill="#cbd5e1"/>
  <rect x="384" y="238" width="210" height="24" rx="12" fill="#cbd5e1"/>
  <rect x="384" y="302" width="244" height="92" rx="18" fill="#f8cad7"/>
  <rect x="410" y="332" width="96" height="16" rx="8" fill="#0f172a" opacity="0.72"/>
  <rect x="410" y="362" width="166" height="14" rx="7" fill="#ffffff" opacity="0.75"/>
  <rect x="384" y="424" width="92" height="28" rx="14" fill="#334155"/>
  <rect x="496" y="424" width="92" height="28" rx="14" fill="#e2e8f0"/>
</svg>
